<?xml version="1.0" encoding="UTF-8"?>
<svg version="1.1" xmlns="http://www.w3.org/2000/svg" width="512" height="512">
<path d="M0 0 C137.28 0 274.56 0 416 0 C416 79.2 416 158.4 416 240 C278.72 240 141.44 240 0 240 C0 160.8 0 81.6 0 0 Z " fill="#6EBE5A" transform="translate(48,8)"/>
<path d="M0 0 C137.28 0 274.56 0 416 0 C416 79.2 416 158.4 416 240 C278.72 240 141.44 240 0 240 C0 160.8 0 81.6 0 0 Z M16 16 C16 74.08 16 132.16 16 192 C105.76 192 195.52 192 288 192 C288 181.44 288 170.88 288 160 C314.4 160 340.8 160 368 160 C368 170.56 368 181.12 368 192 C378.56 192 389.12 192 400 192 C400 133.92 400 75.84 400 16 C273.28 16 146.56 16 16 16 Z " fill="#000000" transform="translate(48,8)"/>
<path d="M0 0 C1.06077255 -0.00671722 2.1215451 -0.01343445 3.21446228 -0.02035522 C6.72008961 -0.03934785 10.2255256 -0.04326016 13.73120117 -0.04541016 C16.17111795 -0.05183742 18.61103395 -0.05856573 21.0509491 -0.06558228 C26.1661457 -0.07755838 31.28127474 -0.08126277 36.39648438 -0.08007812 C42.94350949 -0.07987497 49.49010035 -0.10717221 56.03702259 -0.14162254 C61.07714315 -0.16388623 66.11715914 -0.16791581 71.15732384 -0.16685867 C73.5705992 -0.16921561 75.9838774 -0.17804428 78.39710426 -0.19352341 C81.77676205 -0.21317076 85.1554826 -0.2073493 88.53515625 -0.1953125 C89.52712006 -0.20655151 90.51908386 -0.21779053 91.54110718 -0.22937012 C98.82624198 -0.16360776 104.17378339 1.40933061 109.70385742 6.25537109 C115.01213058 12.66847623 116.46166992 15.60165467 116.46166992 24.29052734 C132.30166992 24.29052734 148.14166992 24.29052734 164.46166992 24.29052734 C164.46166992 40.13052734 164.46166992 55.97052734 164.46166992 72.29052734 C159.18166992 72.29052734 153.90166992 72.29052734 148.46166992 72.29052734 C148.46166992 114.53052734 148.46166992 156.77052734 148.46166992 200.29052734 C143.18166992 200.29052734 137.90166992 200.29052734 132.46166992 200.29052734 C132.46166992 158.05052734 132.46166992 115.81052734 132.46166992 72.29052734 C126.85166992 72.29052734 121.24166992 72.29052734 115.46166992 72.29052734 C114.80166992 73.94052734 114.14166992 75.59052734 113.46166992 77.29052734 C109.7366844 82.65686532 105.93140255 86.67309419 99.46166992 88.29052734 C94.51166992 88.29052734 89.56166992 88.29052734 84.46166992 88.29052734 C84.46166992 101.49052734 84.46166992 114.69052734 84.46166992 128.29052734 C95.02166992 128.29052734 105.58166992 128.29052734 116.46166992 128.29052734 C116.46166992 144.13052734 116.46166992 159.97052734 116.46166992 176.29052734 C111.18166992 176.29052734 105.90166992 176.29052734 100.46166992 176.29052734 C100.46166992 194.77052734 100.46166992 213.25052734 100.46166992 232.29052734 C95.18166992 232.29052734 89.90166992 232.29052734 84.46166992 232.29052734 C84.46166992 213.81052734 84.46166992 195.33052734 84.46166992 176.29052734 C58.06166992 176.29052734 31.66166992 176.29052734 4.46166992 176.29052734 C4.46166992 194.77052734 4.46166992 213.25052734 4.46166992 232.29052734 C-0.81833008 232.29052734 -6.09833008 232.29052734 -11.53833008 232.29052734 C-11.53833008 213.81052734 -11.53833008 195.33052734 -11.53833008 176.29052734 C-16.81833008 176.29052734 -22.09833008 176.29052734 -27.53833008 176.29052734 C-27.53833008 160.45052734 -27.53833008 144.61052734 -27.53833008 128.29052734 C-16.97833008 128.29052734 -6.41833008 128.29052734 4.46166992 128.29052734 C4.46166992 115.09052734 4.46166992 101.89052734 4.46166992 88.29052734 C-0.48833008 88.29052734 -5.43833008 88.29052734 -10.53833008 88.29052734 C-17.24546059 86.05481717 -21.57827696 82.16747573 -25.53833008 76.29052734 C-25.86833008 74.97052734 -26.19833008 73.65052734 -26.53833008 72.29052734 C-32.14833008 72.29052734 -37.75833008 72.29052734 -43.53833008 72.29052734 C-43.53833008 114.53052734 -43.53833008 156.77052734 -43.53833008 200.29052734 C-48.81833008 200.29052734 -54.09833008 200.29052734 -59.53833008 200.29052734 C-59.53833008 158.05052734 -59.53833008 115.81052734 -59.53833008 72.29052734 C-64.81833008 72.29052734 -70.09833008 72.29052734 -75.53833008 72.29052734 C-75.53833008 56.45052734 -75.53833008 40.61052734 -75.53833008 24.29052734 C-59.69833008 24.29052734 -43.85833008 24.29052734 -27.53833008 24.29052734 C-27.53833008 21.98052734 -27.53833008 19.67052734 -27.53833008 17.29052734 C-25.75071605 10.70458091 -21.03493459 6.07775951 -15.53833008 2.29052734 C-10.58951231 -0.39951442 -5.48024285 -0.00497691 0 0 Z M20.46166992 88.29052734 C20.46166992 101.49052734 20.46166992 114.69052734 20.46166992 128.29052734 C36.30166992 128.29052734 52.14166992 128.29052734 68.46166992 128.29052734 C68.46166992 115.09052734 68.46166992 101.89052734 68.46166992 88.29052734 C52.62166992 88.29052734 36.78166992 88.29052734 20.46166992 88.29052734 Z " fill="#000000" transform="translate(347.538330078125,271.70947265625)"/>
<path d="M0 0 C1.06077255 -0.00671722 2.1215451 -0.01343445 3.21446228 -0.02035522 C6.72008961 -0.03934785 10.2255256 -0.04326016 13.73120117 -0.04541016 C16.17111795 -0.05183742 18.61103395 -0.05856573 21.0509491 -0.06558228 C26.1661457 -0.07755838 31.28127474 -0.08126277 36.39648438 -0.08007812 C42.94350949 -0.07987497 49.49010035 -0.10717221 56.03702259 -0.14162254 C61.07714315 -0.16388623 66.11715914 -0.16791581 71.15732384 -0.16685867 C73.5705992 -0.16921561 75.9838774 -0.17804428 78.39710426 -0.19352341 C81.77676205 -0.21317076 85.1554826 -0.2073493 88.53515625 -0.1953125 C89.52712006 -0.20655151 90.51908386 -0.21779053 91.54110718 -0.22937012 C98.82624198 -0.16360776 104.17378339 1.40933061 109.70385742 6.25537109 C115.01213058 12.66847623 116.46166992 15.60165467 116.46166992 24.29052734 C132.30166992 24.29052734 148.14166992 24.29052734 164.46166992 24.29052734 C164.46166992 40.13052734 164.46166992 55.97052734 164.46166992 72.29052734 C159.18166992 72.29052734 153.90166992 72.29052734 148.46166992 72.29052734 C148.46166992 114.53052734 148.46166992 156.77052734 148.46166992 200.29052734 C143.18166992 200.29052734 137.90166992 200.29052734 132.46166992 200.29052734 C132.46166992 158.05052734 132.46166992 115.81052734 132.46166992 72.29052734 C126.85166992 72.29052734 121.24166992 72.29052734 115.46166992 72.29052734 C114.80166992 73.94052734 114.14166992 75.59052734 113.46166992 77.29052734 C109.7366844 82.65686532 105.93140255 86.67309419 99.46166992 88.29052734 C94.51166992 88.29052734 89.56166992 88.29052734 84.46166992 88.29052734 C84.46166992 101.49052734 84.46166992 114.69052734 84.46166992 128.29052734 C95.02166992 128.29052734 105.58166992 128.29052734 116.46166992 128.29052734 C116.46166992 144.13052734 116.46166992 159.97052734 116.46166992 176.29052734 C111.18166992 176.29052734 105.90166992 176.29052734 100.46166992 176.29052734 C100.46166992 194.77052734 100.46166992 213.25052734 100.46166992 232.29052734 C95.18166992 232.29052734 89.90166992 232.29052734 84.46166992 232.29052734 C84.46166992 213.81052734 84.46166992 195.33052734 84.46166992 176.29052734 C58.06166992 176.29052734 31.66166992 176.29052734 4.46166992 176.29052734 C4.46166992 194.77052734 4.46166992 213.25052734 4.46166992 232.29052734 C-0.81833008 232.29052734 -6.09833008 232.29052734 -11.53833008 232.29052734 C-11.53833008 213.81052734 -11.53833008 195.33052734 -11.53833008 176.29052734 C-16.81833008 176.29052734 -22.09833008 176.29052734 -27.53833008 176.29052734 C-27.53833008 160.45052734 -27.53833008 144.61052734 -27.53833008 128.29052734 C-16.97833008 128.29052734 -6.41833008 128.29052734 4.46166992 128.29052734 C4.46166992 115.09052734 4.46166992 101.89052734 4.46166992 88.29052734 C-0.48833008 88.29052734 -5.43833008 88.29052734 -10.53833008 88.29052734 C-17.24546059 86.05481717 -21.57827696 82.16747573 -25.53833008 76.29052734 C-25.86833008 74.97052734 -26.19833008 73.65052734 -26.53833008 72.29052734 C-32.14833008 72.29052734 -37.75833008 72.29052734 -43.53833008 72.29052734 C-43.53833008 114.53052734 -43.53833008 156.77052734 -43.53833008 200.29052734 C-48.81833008 200.29052734 -54.09833008 200.29052734 -59.53833008 200.29052734 C-59.53833008 158.05052734 -59.53833008 115.81052734 -59.53833008 72.29052734 C-64.81833008 72.29052734 -70.09833008 72.29052734 -75.53833008 72.29052734 C-75.53833008 56.45052734 -75.53833008 40.61052734 -75.53833008 24.29052734 C-59.69833008 24.29052734 -43.85833008 24.29052734 -27.53833008 24.29052734 C-27.53833008 21.98052734 -27.53833008 19.67052734 -27.53833008 17.29052734 C-25.75071605 10.70458091 -21.03493459 6.07775951 -15.53833008 2.29052734 C-10.58951231 -0.39951442 -5.48024285 -0.00497691 0 0 Z M20.46166992 88.29052734 C20.46166992 101.49052734 20.46166992 114.69052734 20.46166992 128.29052734 C36.30166992 128.29052734 52.14166992 128.29052734 68.46166992 128.29052734 C68.46166992 115.09052734 68.46166992 101.89052734 68.46166992 88.29052734 C52.62166992 88.29052734 36.78166992 88.29052734 20.46166992 88.29052734 Z " fill="#000000" transform="translate(75.538330078125,271.70947265625)"/>
<path d="M0 0 C0.9778093 -0.00554901 1.95561859 -0.01109802 2.96305847 -0.01681519 C6.19136748 -0.02861436 9.41827378 -0.00433254 12.64648438 0.02148438 C14.89180436 0.02319546 17.13712635 0.02312982 19.38244629 0.0213623 C24.08670174 0.02301571 28.79048076 0.04171827 33.49462891 0.07324219 C39.52404007 0.11291941 45.55282712 0.11728746 51.58234406 0.10977936 C56.2183402 0.10670954 60.85419609 0.11883071 65.49015808 0.13591003 C67.71330383 0.14294039 69.93646548 0.14606452 72.15962219 0.1452179 C75.26686319 0.14701597 78.37335698 0.16839946 81.48046875 0.1953125 C82.39906174 0.1923819 83.31765472 0.18945129 84.26408386 0.18643188 C89.05386571 0.25042776 92.37603763 0.45115905 96.24023438 3.61523438 C97.40067111 5.93610784 97.37874054 7.30937144 97.40136719 9.89379883 C97.41097473 10.77844315 97.42058228 11.66308746 97.43048096 12.57453918 C97.43473083 13.53285141 97.43898071 14.49116364 97.44335938 15.47851562 C97.44905945 16.46264938 97.45475952 17.44678314 97.46063232 18.46073914 C97.47008987 20.54632489 97.47661929 22.63192565 97.48046875 24.7175293 C97.49016339 27.90440064 97.52117537 31.09062417 97.55273438 34.27734375 C97.55926546 36.30273054 97.56451552 38.32812195 97.56835938 40.35351562 C97.58070618 41.30575516 97.59305298 42.25799469 97.60577393 43.23908997 C97.57714086 51.7695816 97.57714086 51.7695816 94.24023438 55.61523438 C91.50299275 56.52764825 89.8895176 56.74430207 87.07203674 56.75567627 C85.79977737 56.76424149 85.79977737 56.76424149 84.5018158 56.77297974 C83.57446121 56.7740976 82.64710663 56.77521545 81.69165039 56.77636719 C80.71252686 56.78133209 79.73340332 56.786297 78.72460938 56.79141235 C75.48111269 56.80603449 72.23766488 56.81283538 68.99414062 56.81835938 C66.74356586 56.82410991 64.49299111 56.82986765 62.24241638 56.83563232 C57.5222043 56.84614186 52.80200925 56.85198513 48.08178711 56.85546875 C42.02763241 56.8609594 35.97370193 56.88499995 29.91961765 56.9134407 C25.27084184 56.93204339 20.62212036 56.93727138 15.97331047 56.93880463 C13.74094349 56.94183604 11.50857757 56.94988092 9.27624702 56.96298981 C6.15672736 56.98000377 3.03775985 56.97818155 -0.08178711 56.97167969 C-1.00711746 56.98089447 -1.93244781 56.99010925 -2.88581848 56.99960327 C-9.1051763 56.95890192 -9.1051763 56.95890192 -12.30213928 55.28045654 C-14.75231184 52.48132927 -14.89372859 49.78535638 -14.95263672 46.22314453 C-14.96869965 45.33857574 -14.98476257 44.45400696 -15.00131226 43.54263306 C-15.04586413 39.50759765 -15.08680842 35.4727238 -15.10986328 31.4375 C-15.12643782 29.30945918 -15.15374738 27.18147437 -15.19189453 25.05371094 C-15.24664757 21.98277971 -15.2685329 18.91315037 -15.28320312 15.84179688 C-15.3058725 14.8926944 -15.32854187 13.94359192 -15.35189819 12.96572876 C-15.34904816 12.07485565 -15.34619812 11.18398254 -15.34326172 10.26611328 C-15.35134857 9.48684479 -15.35943542 8.70757629 -15.36776733 7.9046936 C-13.24499282 -0.08871436 -6.90957567 -0.09976496 0 0 Z " fill="#DA3939" transform="translate(350.759765625,287.384765625)"/>
<path d="M0 0 C0.9778093 -0.00554901 1.95561859 -0.01109802 2.96305847 -0.01681519 C6.19136748 -0.02861436 9.41827378 -0.00433254 12.64648438 0.02148438 C14.89180436 0.02319546 17.13712635 0.02312982 19.38244629 0.0213623 C24.08670174 0.02301571 28.79048076 0.04171827 33.49462891 0.07324219 C39.52404007 0.11291941 45.55282712 0.11728746 51.58234406 0.10977936 C56.2183402 0.10670954 60.85419609 0.11883071 65.49015808 0.13591003 C67.71330383 0.14294039 69.93646548 0.14606452 72.15962219 0.1452179 C75.26686319 0.14701597 78.37335698 0.16839946 81.48046875 0.1953125 C82.39906174 0.1923819 83.31765472 0.18945129 84.26408386 0.18643188 C89.05386571 0.25042776 92.37603763 0.45115905 96.24023438 3.61523438 C97.40067111 5.93610784 97.37874054 7.30937144 97.40136719 9.89379883 C97.41097473 10.77844315 97.42058228 11.66308746 97.43048096 12.57453918 C97.43473083 13.53285141 97.43898071 14.49116364 97.44335938 15.47851562 C97.44905945 16.46264938 97.45475952 17.44678314 97.46063232 18.46073914 C97.47008987 20.54632489 97.47661929 22.63192565 97.48046875 24.7175293 C97.49016339 27.90440064 97.52117537 31.09062417 97.55273438 34.27734375 C97.55926546 36.30273054 97.56451552 38.32812195 97.56835938 40.35351562 C97.58070618 41.30575516 97.59305298 42.25799469 97.60577393 43.23908997 C97.57714086 51.7695816 97.57714086 51.7695816 94.24023438 55.61523438 C91.50299275 56.52764825 89.8895176 56.74430207 87.07203674 56.75567627 C85.79977737 56.76424149 85.79977737 56.76424149 84.5018158 56.77297974 C83.57446121 56.7740976 82.64710663 56.77521545 81.69165039 56.77636719 C80.71252686 56.78133209 79.73340332 56.786297 78.72460938 56.79141235 C75.48111269 56.80603449 72.23766488 56.81283538 68.99414062 56.81835938 C66.74356586 56.82410991 64.49299111 56.82986765 62.24241638 56.83563232 C57.5222043 56.84614186 52.80200925 56.85198513 48.08178711 56.85546875 C42.02763241 56.8609594 35.97370193 56.88499995 29.91961765 56.9134407 C25.27084184 56.93204339 20.62212036 56.93727138 15.97331047 56.93880463 C13.74094349 56.94183604 11.50857757 56.94988092 9.27624702 56.96298981 C6.15672736 56.98000377 3.03775985 56.97818155 -0.08178711 56.97167969 C-1.00711746 56.98089447 -1.93244781 56.99010925 -2.88581848 56.99960327 C-9.1051763 56.95890192 -9.1051763 56.95890192 -12.30213928 55.28045654 C-14.75231184 52.48132927 -14.89372859 49.78535638 -14.95263672 46.22314453 C-14.96869965 45.33857574 -14.98476257 44.45400696 -15.00131226 43.54263306 C-15.04586413 39.50759765 -15.08680842 35.4727238 -15.10986328 31.4375 C-15.12643782 29.30945918 -15.15374738 27.18147437 -15.19189453 25.05371094 C-15.24664757 21.98277971 -15.2685329 18.91315037 -15.28320312 15.84179688 C-15.3058725 14.8926944 -15.32854187 13.94359192 -15.35189819 12.96572876 C-15.34904816 12.07485565 -15.34619812 11.18398254 -15.34326172 10.26611328 C-15.35134857 9.48684479 -15.35943542 8.70757629 -15.36776733 7.9046936 C-13.24499282 -0.08871436 -6.90957567 -0.09976496 0 0 Z " fill="#DA3939" transform="translate(78.759765625,287.384765625)"/>
<path d="M0 0 C126.72 0 253.44 0 384 0 C384 5.28 384 10.56 384 16 C257.28 16 130.56 16 0 16 C0 10.72 0 5.44 0 0 Z " fill="#845A30" transform="translate(64,216)"/>
<path d="M0 0 C36.96 0 73.92 0 112 0 C112 5.28 112 10.56 112 16 C75.04 16 38.08 16 0 16 C0 10.72 0 5.44 0 0 Z " fill="#DB3A3A" transform="translate(336,416)"/>
<path d="M0 0 C36.96 0 73.92 0 112 0 C112 5.28 112 10.56 112 16 C75.04 16 38.08 16 0 16 C0 10.72 0 5.44 0 0 Z " fill="#DB3A3A" transform="translate(64,416)"/>
<path d="M0 0 C15.84 0 31.68 0 48 0 C48 5.28 48 10.56 48 16 C32.16 16 16.32 16 0 16 C0 10.72 0 5.44 0 0 Z " fill="#FFDC32" transform="translate(352,184)"/>
<path d="M0 0 C10.56 0 21.12 0 32 0 C32 5.28 32 10.56 32 16 C21.44 16 10.88 16 0 16 C0 10.72 0 5.44 0 0 Z " fill="#BCC1C4" transform="translate(464,312)"/>
<path d="M0 0 C10.56 0 21.12 0 32 0 C32 5.28 32 10.56 32 16 C21.44 16 10.88 16 0 16 C0 10.72 0 5.44 0 0 Z " fill="#BCC1C4" transform="translate(288,312)"/>
<path d="M0 0 C10.56 0 21.12 0 32 0 C32 5.28 32 10.56 32 16 C21.44 16 10.88 16 0 16 C0 10.72 0 5.44 0 0 Z " fill="#BCC1C4" transform="translate(192,312)"/>
<path d="M0 0 C10.56 0 21.12 0 32 0 C32 5.28 32 10.56 32 16 C21.44 16 10.88 16 0 16 C0 10.72 0 5.44 0 0 Z " fill="#BCC1C4" transform="translate(16,312)"/>
</svg>
